<svg version="1.1" xmlns="http://www.w3.org/2000/svg" viewBox="-9.328716536304851 -7.600397390555998 18.6574330726097 21.12470571582179" fill="none" stroke="black" stroke-width="0.6%" vector-effect="non-scaling-stroke">
    <path d="M -4.1452 -2.77309 A 4.5 3.84198 140.99157 0 1 -3.48968 -4.28959 A 4.5 3.84198 140.99157 0 1 0 -6.55166 A 4.5 3.84198 140.99157 0 1 4.14241 -4.01568 A 4.5 3.84198 140.99157 0 1 4.1452 -4.00449 L 7.75002 10.38621 A 4.5 1.92697 360 0 1 7.75145 10.39182 A 4.5 1.92697 360 0 1 4.75182 12.4179 A 4.5 1.92697 360 0 1 -0.54037 11.61761 L -1.11906 11.70356 L -4.39618 7.65788" />
    <path d="M -4.1452 -2.77309 L -0.54037 11.61761" />
    <path d="M -4.6151 6.78391 L -5.0516 6.84874 L -8.32872 2.80306" />
    <path d="M -4.72389 -2.68713 L -4.1452 -2.77309" />
    <path d="M -4.72389 -2.68713 L -8.32872 2.80306" />
    <path d="M -4.72389 -2.68713 L -1.11906 11.70356" />
    <path d="M 8.32872 10.30025 L 7.75004 10.3862" />
    <path d="M 4.14521 -4.00449 L 4.72389 -4.09044 L 8.32872 10.30025" />
    <path d="M -4.72389 6.34964 L -5.0516 6.84874" />
    <path d="M -4.72389 6.34964 L -4.39618 7.65788" />
    <path d="M -3.48968 -4.28959 L -4.52217 -2.7171" />
    <path d="M 4.14241 -4.01568 L 7.75145 10.39182" />
</svg>