<svg version="1.1" xmlns="http://www.w3.org/2000/svg" viewBox="-9.31276346005688 -7.60264508693803 18.62552692011376 21.12039250581187" fill="none" stroke="black" stroke-width="0.6%" vector-effect="non-scaling-stroke">
    <path d="M -4.14781 -2.7791 A 4.5 3.84615 141.1 0 1 -3.50209 -4.27992 A 4.5 3.84615 141.1 0 1 0 -6.55463 A 4.5 3.84615 141.1 0 1 4.14604 -4.00869 A 4.5 3.84615 141.1 0 1 4.14781 -4.00155 L 7.7337 10.38745 A 4.5 1.92307 360 0 1 7.7346 10.39102 A 4.5 1.92307 360 0 1 4.72686 12.41269 A 4.5 1.92307 360 0 1 -0.56191 11.60991 L -1.14097 11.69524 L -4.40087 7.65519" />
    <path d="M -4.14781 -2.7791 L -0.56191 11.60991" />
    <path d="M -4.6182 6.78313 L -5.05286 6.84718 L -8.31276 2.80714" />
    <path d="M -4.72686 -2.69376 L -4.14781 -2.7791" />
    <path d="M -4.72686 -2.69376 L -8.31276 2.80714" />
    <path d="M -4.72686 -2.69376 L -1.14097 11.69524" />
    <path d="M 8.31276 10.30212 L 7.73371 10.38745" />
    <path d="M 4.14781 -4.00155 L 4.72686 -4.08688 L 8.31276 10.30212" />
    <path d="M -4.72686 6.3471 L -5.05286 6.84718" />
    <path d="M -4.72686 6.3471 L -4.40087 7.65519" />
    <path d="M -3.50209 -4.27992 L -4.51579 -2.72487" />
    <path d="M 4.14604 -4.00869 L 7.7346 10.39102" />
</svg>